<svg width="40" height="40" viewBox="0 0 40 40"
    xmlns="http://www.w3.org/2000/svg">
    <path d="M12.5 37.5C13.8807 37.5 15 36.3807 15 35C15 33.6193 13.8807 32.5 12.5 32.5C11.1193 32.5 10 33.6193 10 35C10 36.3807 11.1193 37.5 12.5 37.5Z" />
    <path d="M30 37.5C31.3807 37.5 32.5 36.3807 32.5 35C32.5 33.6193 31.3807 32.5 30 32.5C28.6193 32.5 27.5 33.6193 27.5 35C27.5 36.3807 28.6193 37.5 30 37.5Z" />
    <path d="M6.225 3.505C6.16838 3.22174 6.01541 2.96683 5.79208 2.78361C5.56875 2.60039 5.28887 2.50017 5 2.5H0V5H3.975L8.775 28.995C8.83162 29.2783 8.98459 29.5332 9.20792 29.7164C9.43125 29.8996 9.71113 29.9998 10 30H32.5V27.5H11.025L10.025 22.5H32.5C32.7844 22.5 33.0602 22.403 33.282 22.225C33.5038 22.0471 33.6583 21.7988 33.72 21.5212L36.555 8.75H33.9963L31.4975 20H9.525L6.225 3.505Z" />
    <path d="M22.5 7.5V2.5H20V7.5H15V10H20V15H22.5V10H27.5V7.5H22.5Z" />
</svg>
